<svg width="240" height="100" viewBox="0 0 240 100" fill="none" xmlns="http://www.w3.org/2000/svg">
<rect width="240" height="100" fill="#1E1E1E"/>
<path d="M31.1857 46.2561C30.7954 43.5959 30.9938 42.418 32.0344 40.8337C34.652 40.9257 36.4299 40.7516 40.2384 39.9775C43.7597 39.3533 46.1561 38.9298 51.5543 37.9797C53.8547 37.5634 55.8907 37.3122 60.6069 36.8382C63.3256 36.6647 65.0622 36.6657 68.528 36.8382C70.9906 37.0305 72.4747 37.2778 75.3175 37.9797C78.0031 38.8647 80.9754 39.9775 80.9754 40.2629C80.9754 40.5483 80.2491 42.3905 79.8439 42.8314C78.6821 44.123 78.0668 44.5246 77.0149 44.8292C75.7507 45.254 75.1453 45.3612 74.1859 45.3999C73.0398 45.3396 72.4374 45.2606 71.357 45.1145C69.0181 44.8809 67.9481 44.834 66.2648 44.8292C62.8797 44.9749 61.4216 45.0885 60.324 45.3999V48.5393C55.0985 46.7468 52.1329 45.8285 46.4621 45.1145C43.0138 44.7026 41.0301 44.6445 37.4095 44.8292C34.526 45.1539 33.1946 45.4824 31.1857 46.2561Z" fill="#008EC6" stroke="#1E1E1E" stroke-width="0.5"/>
<path d="M32.3174 49.11C31.7065 48.2098 31.4686 47.5726 31.1858 46.2561C32.0745 45.9664 32.6958 45.781 34.0148 45.3999C36.0989 44.9263 37.3242 44.7742 39.6727 44.8292C42.8624 44.7247 44.8774 44.8808 48.7253 45.3999C53.3557 46.2693 55.8844 46.9951 60.3241 48.5393L61.4557 58.528C55.7436 62.1411 52.0211 64.5783 49.574 65.6628C48.2258 60.083 47.6654 56.1627 47.028 47.6831C45.8154 48.0085 45.0182 48.2537 43.3503 48.8247C41.8879 49.3772 40.928 49.6903 39.1069 50.2516C38.0186 50.52 37.3749 50.5515 36.2779 50.537C35.3822 50.5676 34.8875 50.495 34.0148 50.2516C33.256 49.9724 32.8779 49.7335 32.3174 49.11Z" fill="#FFC100" stroke="#1E1E1E" stroke-width="0.5"/>
<path d="M60.324 27.1348C60.324 27.1366 60.3232 27.1389 60.3214 27.1416C60.293 27.4744 60.0411 32.5573 60.0411 32.5573L67.9622 32.2719L68.1902 32.2789C71.1411 32.3698 72.8645 32.4229 75.8833 32.5573C77.096 32.7347 77.335 32.8518 78.1465 33.4135C79.9427 34.6729 80.5851 35.5377 80.9754 37.409C80.9754 37.409 81.0307 40.2629 80.9754 40.2629C80.9202 40.2629 77.5756 38.7026 75.3175 37.9797C72.734 37.303 71.2467 37.0565 68.528 36.8382C65.4347 36.7024 63.7002 36.7002 60.6069 36.8382C56.1376 37.2589 53.7142 37.5362 49.8569 38.2651C45.7332 38.926 43.3663 39.3844 39.1068 40.2629C36.3433 40.7299 34.7951 40.7993 32.0344 40.8337C33.0074 38.9909 34.2191 38.5584 36.2779 37.6943C38.1167 39.5394 60.0473 27.5713 60.3214 27.1416C60.3231 27.1217 60.324 27.1187 60.324 27.1348Z" fill="#008EC6" stroke="#1E1E1E" stroke-width="0.5"/>
<path d="M53.8174 20C49.0534 20.5106 46.4165 25.3229 46.2763 34.555L36.2778 37.6943C37.6574 39.5767 52.5142 34.8843 60.324 27.1348C60.3258 22.3984 57.7576 20.3135 53.8174 20Z" fill="#FF0017" stroke="#1E1E1E" stroke-width="0.5"/>
<path d="M63.153 67.0898C62.3282 63.7997 61.9799 61.9174 61.4556 58.528C55.9738 62.0594 53.4405 63.6803 49.574 65.6628L50.1398 68.2313C50.1398 68.2313 64.0017 75.9369 64.2846 75.6516C64.5675 75.3662 64.522 74.0292 64.2846 71.9415C63.8448 70.3392 63.5975 69.3425 63.153 67.0898Z" fill="#00B50F" stroke="#1E1E1E" stroke-width="0.5"/>
<path d="M64.2846 75.6516L50.1398 68.2314L51.5543 74.2246C51.7884 75.0573 51.9809 75.4911 52.4029 76.2223C52.7871 76.9088 53.042 77.2815 53.5345 77.9347C54.1285 78.5138 54.4952 78.8279 55.2319 79.3617C55.8401 79.6596 56.2071 79.7906 56.9293 79.9325C57.5921 80.0192 57.9638 80.0257 58.6267 79.9325C60.0147 79.626 60.756 79.3057 62.0214 78.5055C62.4117 78.1796 62.6508 77.95 63.153 77.3639C63.7182 76.6294 63.9854 76.2441 64.2846 75.6516Z" fill="#00B50F" stroke="#1E1E1E" stroke-width="0.5"/>
<path d="M92.9286 51.64V43.4H94.9686V51.58C94.9686 52.7933 95.2753 53.74 95.8886 54.42C96.5153 55.0867 97.4419 55.42 98.6686 55.42C99.5353 55.42 100.235 55.26 100.769 54.94C101.315 54.6067 101.715 54.1533 101.969 53.58C102.235 52.9933 102.369 52.3267 102.369 51.58V43.4H104.409V51.64C104.409 53.4 103.929 54.7733 102.969 55.76C102.009 56.7467 100.575 57.24 98.6686 57.24C97.4553 57.24 96.4219 57.0333 95.5686 56.62C94.7153 56.1933 94.0619 55.5667 93.6086 54.74C93.1553 53.9 92.9286 52.8667 92.9286 51.64ZM106.94 51.12H112.94V52.84H106.94V51.12ZM118.322 57L123.342 43.4H125.482L120.202 57H118.322ZM118.022 57L112.742 43.4H114.922L119.962 57H118.022ZM125.295 52.1C125.295 51.02 125.501 50.0867 125.915 49.3C126.341 48.5 126.928 47.88 127.675 47.44C128.435 46.9867 129.321 46.76 130.335 46.76C131.308 46.76 132.161 46.9733 132.895 47.4C133.641 47.8133 134.221 48.4067 134.635 49.18C135.061 49.94 135.275 50.8467 135.275 51.9C135.275 52.9667 135.061 53.9 134.635 54.7C134.221 55.5 133.641 56.1267 132.895 56.58C132.148 57.02 131.261 57.24 130.235 57.24C129.261 57.24 128.401 57.0333 127.655 56.62C126.921 56.1933 126.341 55.6 125.915 54.84C125.501 54.0667 125.295 53.1533 125.295 52.1ZM127.275 52.06C127.275 52.7933 127.401 53.4267 127.655 53.96C127.908 54.4933 128.261 54.9067 128.715 55.2C129.168 55.48 129.675 55.62 130.235 55.62C130.821 55.62 131.341 55.4733 131.795 55.18C132.261 54.8733 132.628 54.4467 132.895 53.9C133.161 53.3533 133.295 52.7 133.295 51.94C133.295 51.2067 133.168 50.5733 132.915 50.04C132.661 49.5067 132.308 49.1 131.855 48.82C131.415 48.5267 130.908 48.38 130.335 48.38C129.748 48.38 129.221 48.5333 128.755 48.84C128.301 49.1333 127.941 49.5533 127.675 50.1C127.408 50.6467 127.275 51.3 127.275 52.06ZM139.34 42.6V54.22C139.34 54.7267 139.414 55.0733 139.56 55.26C139.72 55.4467 139.974 55.54 140.32 55.54C140.467 55.54 140.607 55.5267 140.74 55.5C140.887 55.4733 141.034 55.4333 141.18 55.38V56.92C140.727 57.1333 140.247 57.24 139.74 57.24C138.914 57.24 138.327 56.9933 137.98 56.5C137.634 55.9933 137.46 55.3333 137.46 54.52V42.6H139.34ZM146.911 57.24C145.564 57.24 144.504 56.88 143.731 56.16C142.958 55.4267 142.571 54.3267 142.571 52.86V47H144.451V52.84C144.451 53.7333 144.671 54.4067 145.111 54.86C145.551 55.3133 146.151 55.54 146.911 55.54C147.698 55.54 148.304 55.3133 148.731 54.86C149.171 54.4067 149.391 53.7333 149.391 52.84V47H151.271V52.86C151.271 54.3267 150.884 55.4267 150.111 56.16C149.338 56.88 148.271 57.24 146.911 57.24ZM160.884 57V51.18C160.884 50.5533 160.777 50.0467 160.564 49.66C160.35 49.2733 160.064 48.9933 159.704 48.82C159.357 48.6333 158.97 48.54 158.544 48.54C158.09 48.54 157.657 48.64 157.244 48.84C156.844 49.04 156.51 49.3467 156.244 49.76C155.99 50.16 155.864 50.6867 155.864 51.34L155.404 49.44C155.63 48.8133 155.937 48.3067 156.324 47.92C156.724 47.52 157.17 47.2267 157.664 47.04C158.157 46.8533 158.65 46.76 159.144 46.76C159.797 46.76 160.397 46.9067 160.944 47.2C161.504 47.4933 161.95 47.9467 162.284 48.56C162.617 49.1733 162.784 49.9733 162.784 50.96V57H160.884ZM153.984 57V47H155.864V57H153.984ZM170.57 56.84C170.276 56.96 169.97 57.0533 169.65 57.12C169.343 57.2 169.01 57.24 168.65 57.24C167.783 57.24 167.11 56.9867 166.63 56.48C166.15 55.9733 165.91 55.2 165.91 54.16V48.68H165.13C164.863 48.68 164.65 48.6133 164.49 48.48C164.33 48.3333 164.25 48.14 164.25 47.9C164.25 47.6867 164.316 47.5 164.45 47.34C164.583 47.1667 164.783 47.0067 165.05 46.86L167.79 45.24V47H170.97V48.68H167.79V53.9C167.79 54.5 167.903 54.9267 168.13 55.18C168.356 55.4333 168.696 55.56 169.15 55.56C169.39 55.56 169.623 55.5333 169.85 55.48C170.076 55.4133 170.316 55.3333 170.57 55.24V56.84Z" fill="white"/>
<path d="M171.531 57L176.491 44.52C176.664 44.0667 176.878 43.7267 177.131 43.5C177.398 43.2733 177.711 43.16 178.071 43.16C178.444 43.16 178.758 43.2733 179.011 43.5C179.278 43.7267 179.498 44.0667 179.671 44.52L184.591 57H182.431L177.731 44.64H178.411L173.691 57H171.531ZM174.531 53.52V51.78H181.651V53.52H174.531ZM186.23 61V47H188.11V61H186.23ZM187.65 49.44C187.983 48.5867 188.47 47.9267 189.11 47.46C189.763 46.9933 190.53 46.76 191.41 46.76C192.263 46.76 193.03 46.9733 193.71 47.4C194.39 47.8267 194.923 48.4267 195.31 49.2C195.697 49.9733 195.89 50.8933 195.89 51.96C195.89 53.0133 195.697 53.94 195.31 54.74C194.937 55.5267 194.403 56.14 193.71 56.58C193.03 57.02 192.23 57.24 191.31 57.24C190.43 57.24 189.69 57.0267 189.09 56.6C188.49 56.1733 188.077 55.5867 187.85 54.84L188.11 52.78C188.11 53.3133 188.23 53.7933 188.47 54.22C188.71 54.6467 189.037 54.98 189.45 55.22C189.877 55.46 190.35 55.58 190.87 55.58C191.47 55.58 191.997 55.4267 192.45 55.12C192.903 54.8133 193.257 54.3933 193.51 53.86C193.763 53.3133 193.89 52.6867 193.89 51.98C193.89 51.2733 193.763 50.66 193.51 50.14C193.257 49.6067 192.903 49.1933 192.45 48.9C191.997 48.6067 191.463 48.46 190.85 48.46C190.037 48.46 189.377 48.72 188.87 49.24C188.363 49.76 188.11 50.44 188.11 51.28L187.65 49.44ZM198.105 61V47H199.985V61H198.105ZM199.525 49.44C199.858 48.5867 200.345 47.9267 200.985 47.46C201.638 46.9933 202.405 46.76 203.285 46.76C204.138 46.76 204.905 46.9733 205.585 47.4C206.265 47.8267 206.798 48.4267 207.185 49.2C207.572 49.9733 207.765 50.8933 207.765 51.96C207.765 53.0133 207.572 53.94 207.185 54.74C206.812 55.5267 206.278 56.14 205.585 56.58C204.905 57.02 204.105 57.24 203.185 57.24C202.305 57.24 201.565 57.0267 200.965 56.6C200.365 56.1733 199.952 55.5867 199.725 54.84L199.985 52.78C199.985 53.3133 200.105 53.7933 200.345 54.22C200.585 54.6467 200.912 54.98 201.325 55.22C201.752 55.46 202.225 55.58 202.745 55.58C203.345 55.58 203.872 55.4267 204.325 55.12C204.778 54.8133 205.132 54.3933 205.385 53.86C205.638 53.3133 205.765 52.6867 205.765 51.98C205.765 51.2733 205.638 50.66 205.385 50.14C205.132 49.6067 204.778 49.1933 204.325 48.9C203.872 48.6067 203.338 48.46 202.725 48.46C201.912 48.46 201.252 48.72 200.745 49.24C200.238 49.76 199.985 50.44 199.985 51.28L199.525 49.44Z" fill="#FFC100"/>
</svg>
