<svg width="80" height="80" viewBox="0 0 80 80" fill="none" xmlns="http://www.w3.org/2000/svg">
<rect width="80" height="80" fill="#1E1E1E"/>
<path d="M23.5986 41.176V33.76H25.4346V41.122C25.4346 42.214 25.7106 43.066 26.2626 43.678C26.8266 44.278 27.6606 44.578 28.7646 44.578C29.5446 44.578 30.1746 44.434 30.6546 44.146C31.1466 43.846 31.5066 43.438 31.7346 42.922C31.9746 42.394 32.0946 41.794 32.0946 41.122V33.76H33.9306V41.176C33.9306 42.76 33.4986 43.996 32.6346 44.884C31.7706 45.772 30.4806 46.216 28.7646 46.216C27.6726 46.216 26.7426 46.03 25.9746 45.658C25.2066 45.274 24.6186 44.71 24.2106 43.966C23.8026 43.21 23.5986 42.28 23.5986 41.176ZM40.6694 46L45.1874 33.76H47.1134L42.3614 46H40.6694ZM40.3994 46L35.6474 33.76H37.6094L42.1454 46H40.3994Z" fill="white"/>
<path d="M45.8251 46L50.2891 34.768C50.4451 34.36 50.6371 34.054 50.8651 33.85C51.1051 33.646 51.3871 33.544 51.7111 33.544C52.0471 33.544 52.3291 33.646 52.5571 33.85C52.7971 34.054 52.9951 34.36 53.1511 34.768L57.5791 46H55.6351L51.4051 34.876H52.0171L47.7691 46H45.8251ZM48.5251 42.868V41.302H54.9331V42.868H48.5251Z" fill="#FFC100"/>
</svg>
