<svg width="80" height="80" viewBox="0 0 80 80" fill="none" xmlns="http://www.w3.org/2000/svg">
<rect width="80" height="80" fill="#1E1E1E"/>
<path d="M10.0892 38.2187C9.90178 36.953 9.99702 36.3925 10.4965 35.6387C11.7529 35.6825 12.6063 35.5996 14.4344 35.2313C16.1247 34.9343 17.2749 34.7328 19.866 34.2808C20.9703 34.0827 21.9476 33.9632 24.2113 33.7376C25.5163 33.6551 26.3498 33.6555 28.0134 33.7376C29.1955 33.8291 29.9079 33.9468 31.2724 34.2808C32.5615 34.7018 33.9882 35.2313 33.9882 35.3671C33.9882 35.5029 33.6396 36.3794 33.4451 36.5892C32.8874 37.2037 32.592 37.3948 32.0872 37.5397C31.4803 37.7418 31.1897 37.7929 30.7292 37.8113C30.1791 37.7826 29.8899 37.745 29.3713 37.6755C28.2487 37.5643 27.7351 37.542 26.9271 37.5397C25.3023 37.6091 24.6024 37.6631 24.0755 37.8113V39.305C21.5673 38.4521 20.1438 38.0152 17.4218 37.6755C15.7666 37.4795 14.8144 37.4519 13.0765 37.5397C11.6925 37.6942 11.0534 37.8505 10.0892 38.2187Z" fill="#008EC6" stroke="#1E1E1E" stroke-width="0.5"/>
<path d="M10.6323 39.5766C10.3391 39.1482 10.2248 38.845 10.0891 38.2187C10.5157 38.0808 10.8139 37.9926 11.447 37.8113C12.4474 37.5859 13.0355 37.5136 14.1628 37.5397C15.6939 37.49 16.6611 37.5643 18.5081 37.8113C20.7307 38.2249 21.9445 38.5703 24.0755 39.305L24.6186 44.0576C21.8769 45.7767 20.09 46.9364 18.9155 47.4524C18.2683 44.7975 17.9993 42.9322 17.6934 38.8976C17.1113 39.0524 16.7287 39.1691 15.9281 39.4408C15.2261 39.7037 14.7653 39.8527 13.8912 40.1197C13.3688 40.2474 13.0599 40.2624 12.5333 40.2555C12.1034 40.2701 11.8659 40.2355 11.447 40.1197C11.0828 39.9869 10.9013 39.8732 10.6323 39.5766Z" fill="#FFC100" stroke="#1E1E1E" stroke-width="0.5"/>
<path d="M24.0756 29.1207C24.0756 29.1216 24.0752 29.1227 24.0743 29.1239C24.0607 29.2823 23.9398 31.7008 23.9398 31.7008L27.7419 31.565L27.8514 31.5683C29.2678 31.6116 30.095 31.6368 31.544 31.7008C32.1261 31.7852 32.2409 31.8409 32.6304 32.1081C33.4925 32.7074 33.8009 33.1189 33.9883 34.0092C33.9883 34.0092 34.0148 35.3671 33.9883 35.3671C33.9617 35.3671 32.3564 34.6247 31.2725 34.2808C30.0324 33.9587 29.3185 33.8415 28.0135 33.7376C26.5287 33.673 25.6961 33.672 24.2114 33.7376C22.0661 33.9378 20.9029 34.0697 19.0514 34.4166C17.072 34.731 15.9359 34.9491 13.8913 35.3671C12.5649 35.5893 11.8217 35.6223 10.4966 35.6387C10.9636 34.7619 11.5452 34.5561 12.5334 34.145C13.4161 35.0229 23.9428 29.3284 24.0743 29.1239C24.0752 29.1145 24.0756 29.1131 24.0756 29.1207Z" fill="#008EC6" stroke="#1E1E1E" stroke-width="0.5"/>
<path d="M20.9523 25.726C18.6656 25.9689 17.3999 28.2586 17.3326 32.6513L12.5333 34.145C13.1955 35.0406 20.3268 32.808 24.0755 29.1207C24.0763 26.8672 22.8436 25.8751 20.9523 25.726Z" fill="#FF0017" stroke="#1E1E1E" stroke-width="0.5"/>
<path d="M25.4335 48.1314C25.0376 46.5659 24.8704 45.6703 24.6187 44.0576C21.9875 45.7379 20.7714 46.5091 18.9155 47.4524L19.1871 48.6745C19.1871 48.6745 25.8408 52.3408 25.9766 52.2051C26.1124 52.0693 26.0906 51.4331 25.9766 50.4398C25.7655 49.6774 25.6468 49.2032 25.4335 48.1314Z" fill="#00B50F" stroke="#1E1E1E" stroke-width="0.5"/>
<path d="M25.9766 52.205L19.1871 48.6745L19.8661 51.5261C19.9785 51.9223 20.0709 52.1287 20.2735 52.4766C20.4579 52.8032 20.5802 52.9806 20.8166 53.2914C21.1017 53.5669 21.2777 53.7163 21.6314 53.9703C21.9233 54.1121 22.0994 54.1744 22.4461 54.2419C22.7642 54.2832 22.9427 54.2863 23.2608 54.2419C23.9271 54.0961 24.2829 53.9437 24.8903 53.5629C25.0776 53.4079 25.1924 53.2986 25.4335 53.0198C25.7048 52.6703 25.833 52.4869 25.9766 52.205Z" fill="#00B50F" stroke="#1E1E1E" stroke-width="0.5"/>
<path d="M35.5986 41.676V34.26H37.4346V41.622C37.4346 42.714 37.7106 43.566 38.2626 44.178C38.8266 44.778 39.6606 45.078 40.7646 45.078C41.5446 45.078 42.1746 44.934 42.6546 44.646C43.1466 44.346 43.5066 43.938 43.7346 43.422C43.9746 42.894 44.0946 42.294 44.0946 41.622V34.26H45.9306V41.676C45.9306 43.26 45.4986 44.496 44.6346 45.384C43.7706 46.272 42.4806 46.716 40.7646 46.716C39.6726 46.716 38.7426 46.53 37.9746 46.158C37.2066 45.774 36.6186 45.21 36.2106 44.466C35.8026 43.71 35.5986 42.78 35.5986 41.676ZM52.6694 46.5L57.1874 34.26H59.1134L54.3614 46.5H52.6694ZM52.3994 46.5L47.6474 34.26H49.6094L54.1454 46.5H52.3994Z" fill="white"/>
<path d="M57.8251 46.5L62.2891 35.268C62.4451 34.86 62.6371 34.554 62.8651 34.35C63.1051 34.146 63.3871 34.044 63.7111 34.044C64.0471 34.044 64.3291 34.146 64.5571 34.35C64.7971 34.554 64.9951 34.86 65.1511 35.268L69.5791 46.5H67.6351L63.4051 35.376H64.0171L59.7691 46.5H57.8251ZM60.5251 43.368V41.802H66.9331V43.368H60.5251Z" fill="#FFC100"/>
</svg>
