<svg width="80" height="80" viewBox="0 0 80 80" fill="none" xmlns="http://www.w3.org/2000/svg">
<rect width="80" height="80" fill="#1E1E1E"/>
<path d="M20.1486 37.0311C19.8363 34.9216 19.995 33.9875 20.8275 32.7311C22.9216 32.8041 24.3439 32.666 27.3907 32.0521C30.2078 31.5572 32.1249 31.2213 36.4434 30.4679C38.2838 30.1378 39.9126 29.9386 43.6855 29.5627C45.8604 29.4251 47.2497 29.4259 50.0224 29.5627C51.9925 29.7152 53.1798 29.9113 55.454 30.4679C57.6025 31.1697 59.9804 32.0521 59.9804 32.2785C59.9804 32.5048 59.3993 33.9656 59.0751 34.3153C58.1457 35.3395 57.6534 35.658 56.8119 35.8995C55.8005 36.2364 55.3162 36.3214 54.5488 36.3522C53.6318 36.3043 53.1499 36.2416 52.2856 36.1258C50.4145 35.9405 49.5585 35.9034 48.2119 35.8995C45.5038 36.0151 44.3373 36.1052 43.4592 36.3522V38.8416C39.2788 37.4202 36.9064 36.692 32.3697 36.1258C29.6111 35.7991 28.0241 35.7531 25.1276 35.8995C22.8208 36.157 21.7556 36.4175 20.1486 37.0311Z" fill="#008EC6" stroke="#1E1E1E" stroke-width="0.5"/>
<path d="M21.0538 39.2943C20.5651 38.5804 20.3748 38.0751 20.1486 37.0311C20.8595 36.8013 21.3565 36.6543 22.4117 36.3522C24.079 35.9766 25.0593 35.856 26.9381 35.8995C29.4899 35.8167 31.1018 35.9405 34.1802 36.3522C37.8845 37.0416 39.9075 37.6171 43.4592 38.8416L44.3645 46.7627C39.7948 49.6279 36.8168 51.5606 34.8592 52.4207C33.7806 47.9958 33.3323 44.8871 32.8223 38.1627C31.8522 38.4207 31.2145 38.6152 29.8802 39.068C28.7103 39.5061 27.9423 39.7545 26.4854 40.1995C25.6148 40.4124 25.0999 40.4374 24.2223 40.4259C23.5057 40.4501 23.1099 40.3925 22.4117 40.1995C21.8048 39.9781 21.5023 39.7887 21.0538 39.2943Z" fill="#FFC100" stroke="#1E1E1E" stroke-width="0.5"/>
<path d="M43.4592 21.8679C43.4592 21.8693 43.4585 21.8711 43.4571 21.8732C43.4344 22.1372 43.2329 26.1679 43.2329 26.1679L49.5697 25.9416L49.7522 25.9472C52.1129 26.0193 53.4916 26.0614 55.9066 26.1679C56.8768 26.3086 57.068 26.4014 57.7172 26.8469C59.1541 27.8456 59.668 28.5314 59.9803 30.0153C59.9803 30.0153 60.0245 32.2785 59.9803 32.2785C59.9361 32.2785 57.2605 31.0412 55.454 30.4679C53.3872 29.9312 52.1973 29.7358 50.0224 29.5627C47.5477 29.455 46.1601 29.4533 43.6855 29.5627C40.11 29.8963 38.1714 30.1162 35.0855 30.6942C31.7865 31.2183 29.8931 31.5818 26.4854 32.2785C24.2746 32.6488 23.0361 32.7038 20.8275 32.7311C21.6059 31.2698 22.5753 30.9268 24.2223 30.2416C25.6933 31.7048 43.2378 22.2141 43.4571 21.8732C43.4585 21.8575 43.4592 21.8551 43.4592 21.8679Z" fill="#008EC6" stroke="#1E1E1E" stroke-width="0.5"/>
<path d="M38.2539 16.21C34.4427 16.6149 32.3332 20.431 32.2211 27.7521L24.2223 30.2416C25.3259 31.7343 37.2114 28.0132 43.4592 21.8679C43.4606 18.1119 41.4061 16.4586 38.2539 16.21Z" fill="#FF0017" stroke="#1E1E1E" stroke-width="0.5"/>
<path d="M45.7223 53.5522C45.0625 50.9432 44.7839 49.4505 44.3644 46.7627C39.979 49.5632 37.9523 50.8485 34.8591 52.4206L35.3118 54.4575C35.3118 54.4575 46.4013 60.5681 46.6276 60.3417C46.8539 60.1154 46.8175 59.0552 46.6276 57.3996C46.2758 56.129 46.0779 55.3387 45.7223 53.5522Z" fill="#00B50F" stroke="#1E1E1E" stroke-width="0.5"/>
<path d="M46.6276 60.3418L35.3118 54.4575L36.4434 59.2102C36.6307 59.8705 36.7847 60.2145 37.1223 60.7944C37.4297 61.3388 37.6335 61.6343 38.0276 62.1523C38.5028 62.6115 38.7961 62.8606 39.3855 63.2839C39.872 63.5201 40.1656 63.624 40.7434 63.7365C41.2736 63.8053 41.571 63.8105 42.1013 63.7365C43.2117 63.4935 43.8048 63.2395 44.8171 62.6049C45.1293 62.3465 45.3206 62.1644 45.7223 61.6997C46.1745 61.1172 46.3883 60.8116 46.6276 60.3418Z" fill="#00B50F" stroke="#1E1E1E" stroke-width="0.5"/>
</svg>
