<svg width="80" height="80" viewBox="0 0 80 80" fill="none" xmlns="http://www.w3.org/2000/svg">
<rect width="80" height="80" fill="#1E1E1E"/>
<circle cx="40" cy="40" r="29.5" stroke="white"/>
<path d="M31.8334 43.25C31.8334 43.25 32.9167 42.1667 36.1667 42.1667C39.4167 42.1667 41.5834 44.3333 44.8334 44.3333C48.0834 44.3333 49.1667 43.25 49.1667 43.25V30.25C49.1667 30.25 48.0834 31.3333 44.8334 31.3333C41.5834 31.3333 39.4167 29.1667 36.1667 29.1667C32.9167 29.1667 31.8334 30.25 31.8334 30.25V43.25Z" fill="#FFC100"/>
<path d="M31.8334 43.25C31.8334 43.25 32.9167 42.1667 36.1667 42.1667C39.4167 42.1667 41.5834 44.3333 44.8334 44.3333C48.0834 44.3333 49.1667 43.25 49.1667 43.25V30.25C49.1667 30.25 48.0834 31.3333 44.8334 31.3333C41.5834 31.3333 39.4167 29.1667 36.1667 29.1667C32.9167 29.1667 31.8334 30.25 31.8334 30.25V43.25ZM31.8334 43.25V50.8333" stroke="white" stroke-width="1.5" stroke-linecap="round" stroke-linejoin="round"/>
</svg>
