<svg width="80" height="80" viewBox="0 0 80 80" fill="none" xmlns="http://www.w3.org/2000/svg">
<rect width="80" height="80" fill="#1E1E1E"/>
<circle cx="40" cy="40" r="29.5" stroke="white"/>
<path d="M32.5714 37.7586C31.6024 37.7586 30.7728 37.4075 30.0827 36.7052C29.3927 36.0029 29.0476 35.1586 29.0476 34.1724C29.0476 33.1862 29.3927 32.342 30.0827 31.6397C30.7728 30.9374 31.6024 30.5862 32.5714 30.5862C33.5405 30.5862 34.37 30.9374 35.0601 31.6397C35.7502 32.342 36.0952 33.1862 36.0952 34.1724C36.0952 35.1586 35.7502 36.0029 35.0601 36.7052C34.37 37.4075 33.5405 37.7586 32.5714 37.7586ZM25.5238 44.931V42.4207C25.5238 41.9126 25.6523 41.4457 25.9092 41.0198C26.1662 40.594 26.5075 40.269 26.9333 40.0448C27.8436 39.5816 28.7686 39.2342 29.7083 39.0026C30.648 38.771 31.6024 38.6552 32.5714 38.6552C33.5405 38.6552 34.4948 38.771 35.4345 39.0026C36.3742 39.2342 37.2992 39.5816 38.2095 40.0448C38.6353 40.269 38.9767 40.594 39.2336 41.0198C39.4906 41.4457 39.619 41.9126 39.619 42.4207V44.931H25.5238ZM27.2857 43.1379H37.8571V42.4207C37.8571 42.2563 37.8168 42.1069 37.736 41.9724C37.6553 41.8379 37.5488 41.7333 37.4167 41.6586C36.6238 41.2552 35.8236 40.9526 35.0161 40.7509C34.2085 40.5491 33.3936 40.4483 32.5714 40.4483C31.7492 40.4483 30.9343 40.5491 30.1268 40.7509C29.3192 40.9526 28.519 41.2552 27.7262 41.6586C27.594 41.7333 27.4876 41.8379 27.4068 41.9724C27.3261 42.1069 27.2857 42.2563 27.2857 42.4207V43.1379ZM32.5714 35.9655C33.0559 35.9655 33.4707 35.7899 33.8158 35.4388C34.1608 35.0876 34.3333 34.6655 34.3333 34.1724C34.3333 33.6793 34.1608 33.2572 33.8158 32.906C33.4707 32.5549 33.0559 32.3793 32.5714 32.3793C32.0869 32.3793 31.6721 32.5549 31.3271 32.906C30.982 33.2572 30.8095 33.6793 30.8095 34.1724C30.8095 34.6655 30.982 35.0876 31.3271 35.4388C31.6721 35.7899 32.0869 35.9655 32.5714 35.9655Z" fill="white"/>
<path d="M48.4286 37.7586C47.4596 37.7586 46.63 37.4075 45.9399 36.7052C45.2498 36.0029 44.9048 35.1586 44.9048 34.1724C44.9048 33.1862 45.2498 32.342 45.9399 31.6397C46.63 30.9374 47.4596 30.5862 48.4286 30.5862C49.3976 30.5862 50.2272 30.9374 50.9173 31.6397C51.6074 32.342 51.9524 33.1862 51.9524 34.1724C51.9524 35.1586 51.6074 36.0029 50.9173 36.7052C50.2272 37.4075 49.3976 37.7586 48.4286 37.7586ZM41.381 44.931V42.4207C41.381 41.9126 41.5095 41.4457 41.7664 41.0198C42.0233 40.594 42.3647 40.269 42.7905 40.0448C43.7008 39.5816 44.6258 39.2342 45.5655 39.0026C46.5052 38.771 47.4596 38.6552 48.4286 38.6552C49.3976 38.6552 50.352 38.771 51.2917 39.0026C52.2314 39.2342 53.1564 39.5816 54.0667 40.0448C54.4925 40.269 54.8339 40.594 55.0908 41.0198C55.3477 41.4457 55.4762 41.9126 55.4762 42.4207V44.931H41.381ZM43.1429 43.1379H53.7143V42.4207C53.7143 42.2563 53.6739 42.1069 53.5932 41.9724C53.5124 41.8379 53.406 41.7333 53.2738 41.6586C52.481 41.2552 51.6808 40.9526 50.8732 40.7509C50.0657 40.5491 49.2508 40.4483 48.4286 40.4483C47.6064 40.4483 46.7915 40.5491 45.984 40.7509C45.1764 40.9526 44.3762 41.2552 43.5834 41.6586C43.4512 41.7333 43.3448 41.8379 43.264 41.9724C43.1833 42.1069 43.1429 42.2563 43.1429 42.4207V43.1379ZM48.4286 35.9655C48.9131 35.9655 49.3279 35.7899 49.6729 35.4388C50.018 35.0876 50.1905 34.6655 50.1905 34.1724C50.1905 33.6793 50.018 33.2572 49.6729 32.906C49.3279 32.5549 48.9131 32.3793 48.4286 32.3793C47.9441 32.3793 47.5293 32.5549 47.1843 32.906C46.8392 33.2572 46.6667 33.6793 46.6667 34.1724C46.6667 34.6655 46.8392 35.0876 47.1843 35.4388C47.5293 35.7899 47.9441 35.9655 48.4286 35.9655Z" fill="white"/>
<path d="M40.5002 43.6383C41.4289 43.6383 42.3431 43.7484 43.2434 43.9703C44.1417 44.1918 45.0285 44.5252 45.9045 44.9703H45.9055C46.2477 45.1505 46.5222 45.4109 46.7336 45.7614C46.9425 46.1075 47.0481 46.4849 47.0481 46.9039V48.9137H33.9524V46.9039C33.9524 46.485 34.0572 46.1074 34.2659 45.7614C34.451 45.4545 34.685 45.2169 34.97 45.0416L35.095 44.9703C35.971 44.5251 36.8577 44.1918 37.7561 43.9703C38.6566 43.7484 39.5715 43.6383 40.5002 43.6383ZM40.5002 44.4313C39.6367 44.4313 38.7805 44.5372 37.9338 44.7487C37.0874 44.9601 36.252 45.2766 35.428 45.6959L35.4084 45.7057C35.1985 45.8244 35.0302 45.9919 34.9065 46.1979C34.7769 46.4138 34.7141 46.6535 34.7141 46.9039V48.1207H46.2854V46.9039C46.2854 46.6534 46.2227 46.4139 46.093 46.1979C45.9693 45.9919 45.801 45.8244 45.5911 45.7057L45.5715 45.6959L45.262 45.5436C44.5384 45.1992 43.8063 44.9337 43.0657 44.7487C42.2191 44.5372 41.3637 44.4313 40.5002 44.4313ZM40.5002 35.569C41.3327 35.569 42.0344 35.865 42.6321 36.4733C43.2299 37.0818 43.5236 37.7998 43.5237 38.6549C43.5237 39.5103 43.2301 40.2289 42.6321 40.8375C42.0344 41.4458 41.3327 41.7418 40.5002 41.7418C39.6678 41.7418 38.9661 41.4457 38.3684 40.8375C37.7704 40.2289 37.4758 39.5103 37.4758 38.6549C37.4759 37.7997 37.7704 37.0818 38.3684 36.4733C38.9662 35.8649 39.6677 35.569 40.5002 35.569ZM40.5002 36.3619C39.8792 36.3619 39.336 36.5936 38.8987 37.0387C38.4619 37.4834 38.2386 38.0312 38.2385 38.6549C38.2385 39.2788 38.4617 39.8273 38.8987 40.2721C39.336 40.7172 39.8792 40.9479 40.5002 40.9479C41.1211 40.9478 41.6636 40.717 42.1008 40.2721C42.5379 39.8273 42.762 39.2789 42.762 38.6549C42.7619 38.0311 42.5378 37.4834 42.1008 37.0387C41.6635 36.5937 41.1212 36.362 40.5002 36.3619Z" fill="#FFC100" stroke="#FFC100"/>
</svg>
