<svg width="80" height="80" viewBox="0 0 80 80" fill="none" xmlns="http://www.w3.org/2000/svg">
<rect width="80" height="80" fill="#1E1E1E"/>
<circle cx="40" cy="40" r="29.5" stroke="white"/>
<path d="M23.1263 37.5041C22.8609 35.7306 22.9958 34.9454 23.7034 33.8891C25.4833 33.9505 26.6923 33.8344 29.2821 33.3183C31.6766 32.9022 33.3061 32.6199 36.9769 31.9865C38.5412 31.7089 39.9257 31.5415 43.1327 31.2254C44.9814 31.1098 46.1623 31.1105 48.5191 31.2254C50.1936 31.3537 51.2028 31.5185 53.1359 31.9865C54.9621 32.5764 56.9833 33.3183 56.9833 33.5086C56.9833 33.6988 56.4894 34.927 56.2138 35.2209C55.4238 36.082 55.0054 36.3497 54.2901 36.5528C53.4305 36.836 53.0188 36.9075 52.3664 36.9333C51.5871 36.8931 51.1774 36.8404 50.4427 36.743C48.8523 36.5872 48.1247 36.556 46.9801 36.5528C44.6782 36.65 43.6867 36.7257 42.9403 36.9333V39.0262C39.387 37.8312 37.3704 37.219 33.5142 36.743C31.1694 36.4684 29.8205 36.4297 27.3584 36.5528C25.3977 36.7693 24.4923 36.9882 23.1263 37.5041Z" fill="#008EC6" stroke="#1E1E1E" stroke-width="0.5"/>
<path d="M23.8958 39.4067C23.4804 38.8066 23.3186 38.3817 23.1263 37.5041C23.7306 37.3109 24.1531 37.1873 25.05 36.9333C26.4672 36.6175 27.3004 36.5161 28.8974 36.5528C31.0665 36.4832 32.4366 36.5872 35.0532 36.9333C38.2019 37.5129 39.9214 37.9967 42.9404 39.0262L43.7099 45.6853C39.8257 48.0941 37.2943 49.7189 35.6303 50.4419C34.7136 46.722 34.3325 44.1085 33.899 38.4554C33.0745 38.6723 32.5324 38.8358 31.3982 39.2164C30.4038 39.5848 29.751 39.7936 28.5127 40.1677C27.7726 40.3467 27.335 40.3677 26.589 40.358C25.9799 40.3784 25.6435 40.33 25.05 40.1677C24.5341 39.9816 24.277 39.8223 23.8958 39.4067Z" fill="#FFC100" stroke="#1E1E1E" stroke-width="0.5"/>
<path d="M42.9403 24.7565C42.9403 24.7577 42.9397 24.7592 42.9385 24.761C42.9192 24.9829 42.7479 28.3715 42.7479 28.3715L48.1343 28.1812L48.2893 28.1859C50.296 28.2465 51.4679 28.2819 53.5206 28.3715C54.3452 28.4898 54.5078 28.5678 55.0596 28.9423C56.281 29.7819 56.7178 30.3585 56.9833 31.606C56.9833 31.606 57.0208 33.5086 56.9833 33.5086C56.9457 33.5086 54.6714 32.4684 53.1359 31.9865C51.3791 31.5353 50.3677 31.371 48.519 31.2254C46.4156 31.1349 45.2361 31.1335 43.1327 31.2254C40.0935 31.5059 38.4456 31.6908 35.8226 32.1767C33.0185 32.6173 31.4091 32.9229 28.5126 33.5086C26.6334 33.8199 25.5807 33.8662 23.7034 33.8891C24.365 32.6606 25.189 32.3722 26.5889 31.7962C27.8393 33.0263 42.7521 25.0476 42.9385 24.761C42.9397 24.7478 42.9403 24.7458 42.9403 24.7565Z" fill="#008EC6" stroke="#1E1E1E" stroke-width="0.5"/>
<path d="M38.5159 20C35.2764 20.3404 33.4833 23.5486 33.388 29.7033L26.589 31.7962C27.5271 33.0511 37.6298 29.9229 42.9404 24.7565C42.9416 21.599 41.1952 20.209 38.5159 20Z" fill="#FF0017" stroke="#1E1E1E" stroke-width="0.5"/>
<path d="M44.8641 51.3932C44.3033 49.1998 44.0664 47.9449 43.7099 45.6853C39.9823 48.0396 38.2596 49.1202 35.6304 50.4419L36.0151 52.1542C36.0151 52.1542 45.4412 57.2913 45.6336 57.101C45.8259 56.9108 45.795 56.0194 45.6336 54.6276C45.3345 53.5594 45.1663 52.895 44.8641 51.3932Z" fill="#00B50F" stroke="#1E1E1E" stroke-width="0.5"/>
<path d="M45.6335 57.101L36.015 52.1542L36.9769 56.1497C37.1361 56.7049 37.267 56.994 37.554 57.4816C37.8152 57.9392 37.9885 58.1877 38.3234 58.6231C38.7274 59.0092 38.9767 59.2186 39.4777 59.5744C39.8912 59.773 40.1408 59.8604 40.6319 59.955C41.0826 60.0128 41.3354 60.0172 41.7861 59.955C42.73 59.7507 43.2341 59.5371 44.0945 59.0037C44.3599 58.7864 44.5225 58.6333 44.864 58.2426C45.2484 57.753 45.43 57.496 45.6335 57.101Z" fill="#00B50F" stroke="#1E1E1E" stroke-width="0.5"/>
</svg>
